# xmcd CD database file
#
# Track frame offsets:
#	150
#	27535
#	43882
#	74143
#	104541
#	134398
#	166189
#	182306
#	205393
#
# Disc length: 2922 seconds
#
# Revision: 0
# Processed by: cddbd v1.5.2PL0 Copyright (c) Steve Scherf et al.
# Submitted via: CDex 1.70beta2
#
DISCID=860b6809
DTITLE=Franco Ambrosetti - The Wind
DYEAR=1900
DGENRE=Jazz
TTITLE0=The Wind
TTITLE1=Doxy
TTITLE2=Otello
TTITLE3=Stiletto
TTITLE4=Frasi
TTITLE5=I've Never Been In Love Before
TTITLE6=Lyrical Sketches
TTITLE7=Mike On Wings
TTITLE8=African Breeze
EXTD=
EXTT0=
EXTT1=
EXTT2=
EXTT3=
EXTT4=
EXTT5=
EXTT6=
EXTT7=
EXTT8=
PLAYORDER=
